<?xml version="1.0" standalone="no"?>
<!DOCTYPE svg PUBLIC "-//W3C//DTD SVG 20010904//EN"
 "http://www.w3.org/TR/2001/REC-SVG-20010904/DTD/svg10.dtd">
<svg version="1.0" xmlns="http://www.w3.org/2000/svg"
 width="537.000000pt" height="537.000000pt" viewBox="0 0 537.000000 537.000000"
 preserveAspectRatio="xMidYMid meet">
<metadata>
Created by potrace 1.14, written by Peter Selinger 2001-2017
</metadata>
<g transform="translate(0.000000,537.000000) scale(0.100000,-0.100000)"
fill="#000000" stroke="none">
<path d="M826 5223 c-5 -11 5 -28 27 -52 19 -20 40 -47 47 -59 9 -18 12 -198
11 -730 -1 -1170 -12 -2254 -22 -2289 -13 -40 -77 -99 -118 -108 -17 -3 -33
-10 -36 -14 -2 -5 176 -120 398 -256 221 -137 660 -407 975 -602 l572 -353
473 291 c259 161 634 392 832 514 596 368 631 390 634 400 1 5 -13 15 -32 21
-57 20 -85 43 -108 91 l-22 46 -7 1465 c-5 925 -4 1478 2 1499 5 19 27 54 49
78 76 82 255 75 -1821 75 -1718 0 -1848 -1 -1854 -17z m3622 -40 c-2 -5 -14
-30 -27 -57 l-24 -50 9 -1490 c9 -1433 10 -1492 28 -1526 10 -19 36 -51 57
-71 l38 -35 -147 -91 c-81 -50 -491 -303 -912 -563 -421 -260 -773 -475 -782
-477 -10 -3 -105 50 -235 130 -120 74 -420 259 -668 412 -247 153 -563 348
-702 433 l-252 156 38 35 c21 20 47 52 57 71 18 34 19 94 28 1512 4 813 5
1493 2 1512 -4 19 -18 50 -31 70 l-24 36 1775 0 c977 0 1774 -3 1772 -7z"/>
<path d="M1147 5156 c-50 -18 -76 -42 -98 -91 -33 -71 -21 -153 27 -197 11 -9
51 -29 89 -45 39 -15 76 -32 83 -36 15 -10 16 -51 1 -78 -10 -20 -11 -20 -30
-3 -18 16 -19 16 -19 -4 0 -23 -15 -38 -25 -23 -3 6 -32 30 -64 55 l-59 44 -6
-41 c-4 -24 -1 -64 7 -94 l14 -52 -29 15 c-27 14 -28 13 -28 -7 0 -12 9 -36
20 -55 20 -31 14 -54 -10 -39 -15 9 -12 -12 5 -45 18 -36 103 -86 159 -96 23
-3 44 -12 48 -18 11 -17 10 -76 -2 -76 -5 0 -10 15 -10 33 l-1 32 -25 -30
c-13 -16 -30 -47 -36 -68 -10 -33 -13 -36 -21 -20 -15 27 -17 29 -27 13 -6 -8
-10 -39 -10 -67 0 -41 -3 -53 -16 -53 -32 0 11 -87 62 -126 28 -22 34 -33 32
-57 -3 -25 -10 -32 -52 -48 -26 -10 -57 -26 -68 -36 -32 -29 -58 -89 -58 -133
0 -42 27 -107 54 -129 9 -8 16 -19 16 -26 0 -8 17 -22 38 -32 41 -20 67 -64
76 -128 5 -38 5 -38 -6 -12 -7 15 -15 27 -18 27 -12 0 -50 -77 -50 -101 -1
-24 -1 -24 -16 -4 -15 20 -15 20 -30 1 -8 -11 -14 -39 -14 -63 0 -35 -3 -41
-16 -36 -14 5 -15 1 -9 -28 10 -46 28 -79 60 -109 24 -22 26 -29 19 -75 -3
-27 -9 -54 -11 -58 -3 -5 -20 6 -39 24 l-33 32 -6 -26 c-7 -27 16 -121 42
-170 16 -31 7 -31 -29 1 -16 14 -18 13 -20 -4 -3 -36 3 -68 18 -97 15 -28 15
-29 -5 -22 -18 5 -21 2 -21 -22 1 -67 66 -152 146 -191 36 -17 47 -52 17 -52
-10 0 -40 -13 -68 -28 -37 -20 -56 -39 -72 -72 -25 -48 -30 -118 -12 -153 17
-33 60 -77 92 -93 15 -8 25 -19 22 -24 -5 -8 39 -36 160 -102 107 -59 121 -70
142 -113 l22 -45 -50 -6 c-27 -4 -49 -10 -49 -15 0 -15 67 -59 116 -76 l49
-17 -35 -6 -35 -5 30 -21 c17 -12 48 -27 69 -34 46 -15 156 -15 205 -1 25 8
40 7 62 -4 41 -22 45 -35 10 -35 -37 0 -37 0 -11 -49 19 -38 72 -91 91 -91 5
0 9 -4 9 -9 0 -6 -19 -11 -42 -13 l-43 -3 47 -28 c25 -15 74 -34 108 -40 l61
-13 -38 -18 c-44 -21 -35 -30 42 -40 54 -7 148 12 189 40 22 14 27 14 63 -4
21 -11 91 -39 156 -62 65 -24 114 -47 110 -51 -14 -13 -125 -39 -170 -39 -24
0 -43 -4 -43 -8 0 -4 20 -25 45 -46 l45 -37 32 26 c17 14 58 40 91 56 l60 31
41 -19 c47 -21 131 -84 163 -121 26 -31 33 -27 39 25 6 42 -2 49 -119 114
l-48 26 93 32 c51 18 121 48 154 67 34 18 93 41 130 49 38 9 100 32 137 51 66
33 127 45 127 24 0 -15 -78 -75 -190 -146 -146 -91 -190 -137 -190 -195 0 -18
6 -13 30 24 36 57 76 87 238 174 144 77 205 129 200 171 -3 26 -5 27 -81 32
l-78 5 28 26 c36 34 92 52 281 89 84 17 181 41 215 53 161 59 307 175 342 272
10 28 31 79 47 115 24 52 32 86 38 167 5 71 14 115 28 145 28 55 21 61 -13 10
-16 -24 -33 -73 -44 -128 -10 -49 -27 -107 -38 -129 -37 -71 -217 -285 -262
-310 l-42 -24 18 30 c10 17 68 84 130 149 137 145 163 192 170 304 3 61 11 93
30 130 32 61 40 153 24 264 -11 72 -10 84 7 128 40 102 64 202 52 224 -13 25
-37 26 -42 3 -2 -10 -2 23 0 72 2 50 -1 148 -7 219 l-10 129 35 41 c46 53 81
128 94 196 11 60 5 92 -45 230 -35 96 -37 186 -5 293 18 61 20 81 11 90 -9 9
-14 9 -21 -3 -20 -31 -42 -118 -46 -185 -7 -100 -8 -104 -64 -189 -60 -92 -77
-131 -86 -195 -8 -59 15 -146 57 -215 18 -29 29 -58 27 -74 -3 -25 -7 -21 -56
43 -60 81 -92 157 -92 220 0 69 46 182 97 240 79 87 113 183 113 315 0 93 16
151 58 215 88 134 84 224 -14 339 l-34 39 7 101 c5 81 3 108 -10 131 -31 61
-93 98 -117 70 -18 -21 -5 -45 24 -45 28 0 64 -33 72 -67 8 -32 -2 -81 -43
-208 -45 -137 -49 -232 -14 -310 12 -27 31 -60 42 -72 16 -16 18 -26 11 -39
-9 -16 -11 -15 -22 6 -7 12 -27 42 -45 66 -57 74 -69 129 -67 295 2 88 -2 158
-8 175 -6 16 -44 61 -84 100 -60 59 -81 73 -124 83 -56 14 -80 11 -197 -26
-72 -22 -93 -24 -215 -21 -115 2 -135 1 -135 -12 0 -12 22 -16 110 -21 61 -4
119 -10 130 -14 11 -4 58 -33 104 -64 l83 -56 87 0 c75 0 94 4 139 27 47 25
53 25 61 10 11 -22 21 -102 13 -102 -4 1 -34 8 -67 16 -41 10 -147 18 -330 24
-148 5 -273 9 -278 9 -4 1 -27 19 -51 41 -102 94 -182 97 -403 16 -56 -20 -91
-26 -155 -26 -87 0 -116 -9 -103 -30 6 -10 31 -11 99 -6 l90 6 121 -57 c109
-53 126 -58 185 -58 69 1 114 18 160 61 l26 24 280 -15 c154 -8 286 -16 294
-19 8 -3 41 -10 73 -16 l57 -11 0 -103 c0 -131 14 -178 91 -296 l61 -95 -5
-91 c-3 -76 -9 -103 -34 -155 -17 -35 -37 -73 -46 -83 -14 -19 -15 -19 -21 11
-6 24 -1 39 19 68 26 39 55 123 55 160 0 41 -32 129 -75 204 -29 52 -45 93
-50 130 -11 94 -68 179 -105 156 -18 -11 -11 -31 19 -53 63 -47 66 -154 7
-287 -20 -44 -36 -96 -36 -116 0 -58 28 -122 82 -189 48 -60 50 -65 45 -109
-3 -25 -19 -75 -36 -111 -20 -42 -31 -81 -31 -109 0 -39 -2 -43 -13 -27 -39
53 -62 -103 -31 -215 29 -108 29 -138 -2 -210 -20 -46 -28 -81 -28 -124 0 -71
19 -116 79 -183 40 -45 43 -51 54 -142 7 -52 15 -111 19 -130 7 -29 2 -42 -29
-90 -63 -94 -74 -176 -38 -282 13 -39 18 -74 15 -94 -12 -62 -109 -290 -141
-329 -18 -22 -50 -68 -73 -101 -44 -65 -82 -90 -175 -113 -26 -6 -93 -29 -148
-51 -55 -22 -109 -40 -121 -40 -21 0 -21 0 -2 21 10 11 79 57 154 102 150 90
246 177 293 264 32 60 47 164 46 313 -1 93 -1 94 -15 61 -9 -19 -24 -79 -34
-135 -41 -218 -67 -256 -265 -391 -147 -101 -346 -259 -548 -437 -93 -81 -146
-111 -265 -149 l-73 -23 -91 32 c-116 41 -173 90 -214 182 -37 86 -99 150
-175 185 -33 15 -63 24 -66 21 -4 -3 -1 -18 6 -32 6 -15 10 -28 8 -30 -2 -2
-23 6 -47 18 -49 24 -160 38 -160 19 0 -6 4 -11 8 -11 5 0 17 -7 28 -15 18
-13 17 -14 -16 -14 -25 0 -46 9 -74 33 -38 33 -39 35 -41 107 -2 92 -32 165
-86 214 -48 43 -57 44 -51 5 3 -18 0 -30 -7 -30 -6 0 -11 4 -11 9 0 16 -58 71
-75 71 -14 0 -16 -7 -13 -34 l4 -34 -33 29 c-42 36 -105 69 -134 69 -20 0 -21
-3 -14 -46 l7 -46 -32 18 c-41 24 -54 48 -40 73 5 11 10 38 10 60 0 23 10 59
25 87 29 54 31 97 9 153 -17 43 -84 98 -133 107 -48 10 -41 42 20 94 75 63
115 140 73 140 -13 0 -14 9 -9 53 4 31 2 64 -5 82 l-11 29 -24 -29 -24 -30 -1
35 c0 20 -13 58 -32 90 l-32 55 -8 -42 -9 -42 -31 35 c-30 34 -31 37 -22 91
l9 56 60 17 c78 21 117 42 149 80 32 38 34 70 6 70 -21 0 -27 15 -10 25 17 11
42 66 36 81 -5 13 -9 13 -34 0 l-29 -15 15 53 c10 35 12 70 8 100 l-7 46 -42
-33 c-68 -55 -71 -56 -64 -12 5 29 23 55 81 114 79 82 95 117 82 185 -13 71
-104 156 -166 156 -16 0 -21 5 -18 22 2 14 22 33 60 55 58 34 94 78 104 131 6
28 4 30 -17 25 -23 -6 -24 -6 -6 14 21 24 35 93 19 93 -6 0 -14 -4 -17 -10 -3
-5 -11 -10 -16 -10 -5 0 0 18 11 40 21 41 38 130 25 130 -4 0 -25 -16 -48 -35
-22 -19 -44 -35 -49 -35 -19 0 -7 67 16 89 47 44 72 121 40 121 -11 0 -15 6
-11 20 6 25 -10 90 -23 90 -5 0 -14 -8 -19 -17 -9 -15 -10 -13 -11 13 0 58
133 205 228 250 33 15 33 15 72 -20 44 -40 121 -66 189 -65 55 1 90 12 73 23
-27 16 -8 23 51 19 78 -5 101 7 66 36 l-24 21 50 -8 c94 -13 195 -4 195 18 0
6 -6 10 -12 10 -7 0 -33 14 -58 31 l-45 30 45 -6 c59 -9 68 -15 99 -61 31 -45
114 -94 119 -70 4 19 6 19 61 0 25 -8 56 -12 72 -9 33 8 36 13 13 30 -14 10
-7 11 37 8 30 -3 72 0 94 4 l40 9 -35 19 -35 18 27 8 c15 4 55 21 89 38 34 17
68 31 76 31 7 0 13 4 13 10 0 15 -127 50 -184 50 l-51 1 30 24 c26 21 27 25
11 31 -9 4 -45 4 -78 0 -57 -6 -60 -5 -55 14 5 18 0 20 -36 20 -62 0 -144 -43
-203 -105 l-50 -55 -82 14 c-102 16 -118 28 -60 45 29 9 38 15 27 21 -29 15
-120 32 -154 28 -40 -5 -44 4 -12 27 19 13 20 17 7 25 -8 5 -22 10 -31 10 -15
0 -86 -20 -121 -35 -14 -5 -18 -2 -18 15 l0 21 -41 -23 c-50 -28 -101 -88
-129 -151 -16 -36 -34 -55 -78 -83 -31 -20 -81 -56 -109 -81 -33 -27 -53 -39
-53 -30 0 8 7 20 16 28 35 29 74 137 74 205 0 52 -32 101 -85 131 -45 26 -93
28 -148 9z m133 -25 c72 -38 98 -117 66 -196 -12 -27 -21 -35 -40 -35 -14 0
-41 -10 -61 -22 -22 -12 -55 -22 -81 -22 -36 -1 -49 4 -75 30 -55 55 -50 161
9 216 52 48 125 60 182 29z m2620 -84 c23 -12 54 -37 67 -54 l25 -32 -33 -17
c-43 -22 -146 -30 -191 -15 -19 6 -59 29 -87 51 l-53 39 79 25 c98 31 138 32
193 3z m-1610 -6 c-5 -11 -10 -29 -10 -40 0 -18 6 -21 44 -21 35 0 46 4 51 19
3 11 12 24 19 30 11 9 12 6 8 -15 l-5 -27 94 6 94 6 -70 -19 c-38 -11 -80 -20
-92 -20 -28 0 -29 -11 -3 -35 11 -10 18 -20 16 -23 -6 -6 -66 30 -66 40 0 4
-21 8 -47 8 l-46 0 24 -27 c27 -29 7 -22 -29 11 -13 12 -40 26 -60 32 l-37 12
32 1 c23 1 36 8 44 24 12 23 39 57 46 57 2 0 -1 -9 -7 -19z m-624 -23 c-9 -12
-16 -25 -16 -28 0 -12 65 3 90 20 14 10 36 20 50 24 25 7 25 7 -2 -11 -16 -10
-28 -20 -28 -24 0 -3 28 -9 63 -12 34 -3 82 -13 107 -21 30 -10 35 -14 15 -11
-74 11 -185 17 -185 10 0 -5 10 -19 22 -32 31 -33 15 -28 -27 8 -33 29 -38 31
-81 23 l-46 -9 26 -38 c23 -33 23 -36 6 -27 -11 6 -27 22 -36 35 -11 17 -26
25 -48 26 l-31 1 31 13 c17 8 45 27 63 44 39 37 48 39 27 9z m1590 -99 c17
-10 38 -27 48 -38 17 -19 17 -20 -24 -50 -46 -33 -109 -47 -162 -36 -18 4 -69
26 -113 48 l-80 40 50 19 c129 51 217 56 281 17z m1036 -218 c37 -59 38 -126
3 -198 -38 -75 -49 -81 -74 -40 -44 71 -48 194 -10 294 9 25 10 25 31 7 11
-11 34 -39 50 -63z m-3089 -161 c2 3 9 14 15 25 11 20 11 20 12 0 0 -12 -5
-26 -10 -31 -11 -11 -2 -74 11 -74 4 0 13 8 18 18 6 9 11 12 11 6 0 -5 -7 -19
-15 -30 -8 -10 -15 -28 -15 -39 -1 -11 -4 -14 -7 -7 -2 6 -21 12 -41 13 l-37
1 33 9 c35 10 37 15 22 53 -8 21 -17 26 -47 27 l-38 2 32 6 33 6 -40 50 c-56
70 -49 81 10 15 27 -30 51 -52 53 -50z m2880 -200 c46 -89 54 -142 33 -212 -9
-29 -23 -62 -31 -72 -14 -19 -15 -19 -36 0 -12 10 -33 39 -47 64 -38 63 -36
134 3 222 17 37 33 68 36 68 3 0 22 -31 42 -70z m-2819 -121 c-8 -17 -22 -49
-30 -71 -12 -35 -12 -39 1 -34 44 18 47 16 13 -8 -29 -21 -38 -33 -38 -56 0
-33 5 -35 45 -20 15 6 24 6 20 1 -3 -5 -21 -15 -40 -21 -22 -7 -35 -19 -38
-33 -4 -20 -4 -20 -6 3 0 14 -10 39 -21 55 -26 39 -26 54 0 24 l19 -24 2 25
c1 14 1 29 0 34 -1 6 -4 24 -7 40 -4 30 -4 30 6 6 11 -23 12 -22 36 30 24 52
42 80 50 80 3 0 -3 -14 -12 -31z m3017 -384 c43 -105 44 -174 5 -262 -15 -33
-40 -73 -56 -88 l-28 -27 -31 64 c-58 118 -51 198 30 326 24 38 45 69 45 68 1
0 16 -37 35 -81z m-3011 15 c65 -33 108 -111 96 -175 -13 -66 -86 -123 -102
-80 -9 22 -24 18 -24 -5 0 -32 -18 -23 -26 13 l-7 32 -10 -35 c-8 -33 -10 -34
-23 -15 -8 10 -14 24 -15 29 -1 6 -4 0 -8 -13 -3 -13 -14 -29 -23 -35 -21 -13
-61 21 -89 76 -70 136 90 280 231 208z m2749 -338 c10 -21 51 -80 90 -132 39
-52 76 -113 82 -135 6 -22 9 -80 7 -130 -4 -100 -31 -171 -86 -235 l-31 -35
-1 33 c0 19 8 46 19 60 23 33 51 114 51 147 0 68 -25 131 -87 224 -36 53 -72
113 -79 135 -15 42 -18 118 -7 181 l7 40 8 -57 c4 -31 16 -74 27 -96z m-2748
-199 c-5 -10 -23 -35 -40 -57 -38 -48 -38 -54 -3 -59 21 -3 19 -4 -11 -6 -31
-1 -39 -6 -48 -28 -14 -37 -6 -51 33 -56 l33 -4 -37 -1 c-23 -1 -41 -8 -47
-19 -9 -16 -10 -16 -11 3 0 11 -7 29 -15 40 -8 10 -15 25 -15 33 0 11 4 10 13
-4 8 -10 16 -14 19 -9 12 22 17 63 8 69 -5 3 -10 16 -10 28 0 20 0 20 14 1 14
-18 17 -17 68 34 57 57 64 61 49 35z m2829 -159 c15 -54 8 -120 -21 -175 l-21
-41 -29 28 c-40 38 -79 120 -79 166 0 20 9 61 21 90 12 29 25 64 30 77 9 24
12 22 48 -38 22 -34 44 -82 51 -107z m120 -267 c-6 -34 -20 -80 -30 -102 -19
-41 -68 -101 -75 -93 -3 3 -8 26 -11 51 -7 45 -5 49 39 96 26 27 54 68 64 90
23 53 28 36 13 -42z m-3080 -92 c12 -19 30 -58 40 -87 l19 -53 15 35 c9 20 15
27 16 17 0 -10 -7 -34 -15 -54 -10 -23 -13 -49 -9 -66 l6 -30 25 29 24 29 -16
-30 c-8 -16 -19 -37 -25 -45 -5 -8 -12 -28 -16 -45 l-8 -30 -4 27 c-2 18 -12
30 -30 36 -15 6 -36 17 -47 26 -18 15 -17 15 17 1 21 -8 40 -15 43 -15 3 0 5
20 5 45 0 39 -4 46 -28 59 -16 8 -35 22 -42 31 -10 12 -3 10 23 -5 35 -21 37
-21 37 -3 -1 10 -14 51 -29 91 -16 39 -27 72 -26 72 2 0 13 -16 25 -35z m3047
-195 c17 -131 -7 -212 -85 -281 l-46 -40 -15 28 c-25 44 -21 178 6 229 22 41
109 144 122 144 4 0 12 -36 18 -80z m-2924 -224 c68 -28 120 -118 102 -178
-12 -39 -35 -68 -54 -68 -10 0 -24 -7 -31 -15 -7 -8 -25 -15 -39 -15 -15 0
-36 -7 -47 -15 -29 -22 -63 -18 -101 11 -74 56 -91 125 -50 204 38 75 139 110
220 76z m2842 -194 c-16 -53 -65 -133 -99 -161 -10 -8 -2 23 19 86 19 54 35
105 35 115 0 9 12 25 28 36 26 20 27 20 30 1 2 -10 -4 -45 -13 -77z m-2504
-422 c5 0 9 21 9 48 0 34 3 43 10 32 5 -8 10 -35 10 -60 0 -40 4 -48 33 -67
53 -36 58 -33 70 47 3 14 5 -3 6 -37 1 -52 5 -65 24 -79 l22 -16 -25 7 c-14 5
-54 8 -90 7 l-65 -1 39 13 39 12 -30 22 c-17 12 -42 22 -55 23 -12 0 -39 7
-58 15 l-35 14 45 -6 44 -7 -57 62 c-31 34 -65 77 -74 94 -11 22 7 7 57 -45
39 -43 76 -78 81 -78z m514 -294 c23 -40 30 -44 73 -49 26 -3 49 -4 51 -2 2 2
-4 26 -13 52 l-16 48 20 -25 c11 -14 23 -37 26 -52 4 -16 12 -28 18 -28 6 0
20 -8 31 -16 19 -15 18 -16 -12 -9 -25 5 -40 1 -65 -18 -47 -35 -80 -43 -38
-10 l35 28 -40 5 c-24 4 -51 1 -67 -7 -15 -7 -40 -13 -55 -12 l-28 1 33 10
c17 6 32 14 32 17 0 4 -21 13 -47 19 -49 13 -140 56 -158 73 -5 6 12 1 38 -10
56 -24 167 -54 174 -47 2 2 -3 18 -11 35 -31 59 -16 57 19 -3z m242 -137 c19
-12 32 -24 29 -27 -9 -8 -86 30 -80 39 7 13 13 11 51 -12z"/>
<path d="M3733 4986 c39 -36 97 -51 154 -40 67 13 71 37 5 28 -45 -6 -78 0
-172 32 -8 3 -3 -6 13 -20z"/>
<path d="M3063 4895 c-18 -8 -33 -16 -33 -19 0 -2 27 -2 59 1 42 4 76 1 112
-11 55 -18 76 -13 44 10 -46 34 -129 42 -182 19z"/>
<path d="M4247 4678 c4 -13 8 -62 7 -110 -1 -92 7 -109 25 -57 16 46 14 116
-5 155 -18 38 -40 47 -27 12z"/>
<path d="M4010 4274 c-6 -14 -10 -39 -10 -55 0 -33 35 -109 50 -109 14 0 12
17 -6 52 -10 20 -15 49 -12 84 3 58 -6 70 -22 28z"/>
<path d="M4247 3733 c3 -31 -1 -65 -12 -93 -24 -66 -29 -90 -16 -90 18 0 61
97 61 139 0 40 -17 91 -30 91 -4 0 -5 -21 -3 -47z"/>
<path d="M3992 3187 c-7 -16 -12 -42 -12 -58 0 -30 32 -103 50 -114 14 -9 13
22 -2 48 -7 12 -15 51 -18 87 -6 62 -7 63 -18 37z"/>
<path d="M4142 2509 c-6 -34 -23 -79 -37 -100 -28 -43 -30 -49 -14 -49 11 0
45 37 66 74 14 24 17 104 5 124 -5 8 -13 -11 -20 -49z"/>
<path d="M1470 3681 c0 -683 4 -1077 11 -1128 60 -444 451 -800 1079 -982
l103 -30 121 35 c566 163 942 480 1048 884 l22 85 3 1093 4 1092 -1196 0
-1195 0 0 -1049z"/>
<path d="M799 1542 c-30 -16 -124 -65 -209 -110 -177 -92 -210 -120 -217 -184
-10 -87 56 -169 220 -275 56 -37 104 -68 106 -70 3 -2 -7 -16 -22 -31 l-27
-28 29 -17 c16 -9 45 -46 65 -81 51 -91 77 -110 144 -103 39 4 65 15 102 41
28 20 52 36 55 36 3 0 47 -33 98 -74 393 -315 825 -474 1370 -506 682 -40
1281 145 1743 537 28 23 55 43 59 43 5 0 23 -11 42 -26 74 -56 151 -69 197
-33 15 12 38 44 53 72 14 29 41 67 61 85 l35 33 -22 23 c-11 12 -21 25 -21 28
0 3 38 28 85 57 150 91 245 198 245 275 0 38 -24 81 -62 109 -49 36 -397 217
-429 224 -84 17 -133 -22 -274 -218 -224 -312 -519 -525 -910 -656 -350 -118
-780 -132 -1149 -37 -275 70 -570 225 -776 406 -98 86 -144 138 -263 300 -161
217 -208 243 -328 180z m139 -16 c38 -20 77 -64 177 -201 220 -300 473 -492
830 -630 251 -97 518 -141 800 -132 254 9 448 47 670 132 362 139 606 326 842
646 131 176 173 211 236 195 19 -4 304 -151 316 -162 3 -2 -7 -17 -21 -32 -13
-15 -46 -62 -73 -106 -66 -108 -150 -211 -279 -345 -311 -319 -653 -527 -1048
-635 -515 -141 -1129 -118 -1608 61 -114 43 -284 126 -392 194 -260 161 -565
454 -718 689 -38 58 -81 120 -96 138 -14 18 -25 34 -23 36 4 3 132 71 264 140
57 29 84 32 123 12z"/>
<path d="M880 1239 c-124 -104 -118 -95 -92 -121 l22 -22 29 28 c23 22 36 27
55 22 l26 -6 -20 -51 c-11 -27 -20 -58 -20 -68 0 -17 29 -51 43 -51 3 0 18 39
33 86 l26 86 69 -6 c39 -4 69 -3 69 2 0 5 -10 18 -23 30 -17 16 -41 23 -94 28
l-72 7 39 32 c36 30 38 34 24 54 -8 11 -18 21 -22 21 -4 0 -45 -32 -92 -71z"/>
<path d="M4350 1253 c-25 -9 -68 -54 -80 -84 -19 -44 -5 -90 39 -133 73 -71
175 -57 215 29 23 49 16 99 -21 137 -48 51 -103 69 -153 51z m96 -87 c37 -37
42 -60 18 -94 -27 -39 -97 -23 -127 28 -22 37 -21 56 3 80 30 30 67 25 106
-14z"/>
<path d="M4091 1000 c-73 -69 -74 -70 -56 -90 l18 -20 27 25 27 26 76 -78 76
-78 21 21 21 21 -72 77 -72 77 27 28 c26 27 26 28 8 44 -10 9 -20 17 -23 17
-2 -1 -37 -32 -78 -70z"/>
<path d="M1149 1040 c-45 -13 -76 -39 -99 -83 -32 -60 -23 -103 32 -152 38
-35 44 -37 90 -33 38 4 57 12 83 38 62 60 69 129 18 184 -21 23 -83 59 -95 55
-2 0 -15 -4 -29 -9z m87 -85 c19 -30 10 -65 -26 -100 -37 -35 -88 -32 -110 7
-13 25 -13 31 4 62 20 38 67 66 98 58 10 -2 26 -15 34 -27z"/>
<path d="M1380 861 c-8 -16 -5 -23 20 -41 l30 -22 -60 -86 -61 -87 22 -17 c11
-10 25 -16 29 -13 5 3 34 41 64 85 31 44 59 80 62 80 3 0 18 -9 32 -21 25 -19
27 -19 39 -3 7 10 13 21 13 25 0 9 -158 119 -170 119 -5 0 -14 -9 -20 -19z"/>
<path d="M3857 814 c-37 -26 -67 -50 -67 -55 0 -13 139 -203 151 -208 6 -1 19
5 29 14 19 17 19 19 -10 59 -28 37 -29 42 -14 53 12 9 28 7 74 -9 55 -20 60
-21 84 -4 14 9 26 20 26 25 0 4 -26 16 -59 26 l-59 19 6 39 c4 30 0 43 -18 62
-34 36 -67 31 -143 -21z m101 -40 c2 -15 -7 -28 -30 -42 l-32 -21 -15 21 c-13
20 -12 23 15 45 34 27 58 26 62 -3z"/>
<path d="M3625 680 c-38 -22 -74 -41 -79 -43 -7 -2 95 -219 111 -237 4 -4 159
75 176 90 12 11 -3 40 -22 40 -9 0 -34 -12 -56 -25 -50 -31 -69 -31 -82 -2
-10 22 -7 26 43 50 53 26 62 39 45 65 -6 10 -20 7 -65 -15 -49 -24 -58 -25
-66 -13 -15 23 -13 25 50 59 53 28 59 34 50 52 -14 26 -24 24 -105 -21z"/>
<path d="M1571 613 c-55 -49 -100 -91 -100 -94 -1 -3 11 -11 25 -18 22 -9 29
-8 51 9 25 19 25 19 64 0 34 -18 39 -25 39 -55 0 -28 5 -38 25 -47 14 -6 27
-9 29 -7 6 6 26 191 26 243 0 44 -10 56 -46 56 -7 0 -58 -39 -113 -87z m95
-38 c-7 -27 -13 -30 -36 -15 -12 7 -11 13 10 35 26 28 36 20 26 -20z"/>
<path d="M3427 603 c-11 -3 -30 -31 -47 -69 -16 -35 -32 -64 -34 -64 -3 0 -11
21 -17 46 -11 42 -14 45 -38 39 -14 -4 -28 -9 -30 -11 -5 -5 67 -236 77 -246
11 -11 52 3 52 18 0 7 -4 25 -10 39 -7 19 -6 33 3 51 l12 24 52 -45 c48 -42
53 -44 82 -34 18 6 31 15 29 19 -2 5 -33 33 -69 62 l-66 54 29 59 c15 32 28
60 28 62 0 4 -30 2 -53 -4z"/>
<path d="M2005 435 c-25 -108 -27 -128 -14 -136 29 -19 42 -4 60 66 l17 70 1
-76 c1 -74 2 -77 27 -83 31 -8 29 -10 70 62 37 64 40 61 19 -17 -16 -62 -13
-71 20 -71 17 0 26 7 30 23 3 12 16 67 29 122 13 55 21 104 17 108 -4 4 -24
10 -44 14 -35 5 -36 5 -67 -56 -17 -34 -35 -59 -40 -56 -6 3 -10 35 -10 70 0
35 -3 66 -8 69 -4 2 -23 7 -43 11 l-36 7 -28 -127z"/>
<path d="M3008 494 c-55 -30 -75 -120 -42 -190 40 -85 179 -87 228 -4 32 55
13 147 -39 188 -33 26 -105 29 -147 6z m106 -47 c22 -16 37 -82 26 -113 -22
-56 -92 -55 -116 1 -19 47 -18 68 7 99 22 28 55 34 83 13z"/>
<path d="M2396 465 c-32 -30 -46 -64 -46 -116 0 -82 49 -129 136 -129 39 0 51
5 79 33 61 61 57 178 -9 218 -47 29 -126 26 -160 -6z m115 -36 c30 -16 41 -54
29 -100 -27 -100 -145 -58 -126 45 10 54 54 79 97 55z"/>
<path d="M2799 483 c-13 -3 -15 -19 -11 -108 l5 -105 -27 0 c-16 0 -26 6 -26
14 0 20 -12 26 -38 19 -53 -13 0 -93 61 -93 20 0 46 9 61 21 25 20 26 24 26
124 0 134 -3 141 -51 128z"/>
</g>
</svg>
